<?xml version="1.0" encoding="UTF-8" standalone="no"?>
<!DOCTYPE svg PUBLIC "-//W3C//DTD SVG 1.1//EN"
 "http://www.w3.org/Graphics/SVG/1.1/DTD/svg11.dtd">
<!-- Generated by graphviz version 2.47.0 (20210316.0004)
 -->
<!-- Title: dependencies Pages: 1 -->
<svg width="790pt" height="290pt"
 viewBox="0.00 0.00 790.00 290.00" xmlns="http://www.w3.org/2000/svg" xmlns:xlink="http://www.w3.org/1999/xlink">
<g id="graph0" class="graph" transform="scale(1 1) rotate(0) translate(4 286)">
<title>dependencies</title>
<polygon fill="white" stroke="transparent" points="-4,4 -4,-286 786,-286 786,4 -4,4"/>
<text text-anchor="start" x="370.01" y="-42.4" font-family="Times-12" font-weight="bold" font-size="14.00">Legend</text>
<polygon fill="#ffffb3" stroke="transparent" points="157,-10 157,-30 177,-30 177,-10 157,-10"/>
<text text-anchor="start" x="180.63" y="-15.4" font-family="Times-12" font-size="14.00"> &#160;Declarations</text>
<polygon fill="#8dd3c7" stroke="transparent" points="270,-10 270,-30 290,-30 290,-10 270,-10"/>
<text text-anchor="start" x="293.73" y="-15.4" font-family="Times-12" font-size="14.00"> &#160;Module</text>
<polygon fill="#80b1d3" stroke="transparent" points="356,-10 356,-30 376,-30 376,-10 356,-10"/>
<text text-anchor="start" x="379.78" y="-15.4" font-family="Times-12" font-size="14.00"> &#160;Bootstrap</text>
<polygon fill="#fdb462" stroke="transparent" points="453,-10 453,-30 473,-30 473,-10 453,-10"/>
<text text-anchor="start" x="476.67" y="-15.4" font-family="Times-12" font-size="14.00"> &#160;Providers</text>
<polygon fill="#fb8072" stroke="transparent" points="549,-10 549,-30 569,-30 569,-10 549,-10"/>
<text text-anchor="start" x="572.73" y="-15.4" font-family="Times-12" font-size="14.00"> &#160;Exports</text>
<g id="clust1" class="cluster">
<title>cluster_AppModule</title>
<polygon fill="none" stroke="black" stroke-dasharray="1,5" points="8,-70 8,-266 376,-266 376,-70 8,-70"/>
</g>
<g id="clust3" class="cluster">
<title>cluster_AppModule_imports</title>
<polygon fill="none" stroke="black" points="48,-146 48,-198 368,-198 368,-146 48,-146"/>
</g>
<g id="clust6" class="cluster">
<title>cluster_AppModule_providers</title>
<polygon fill="none" stroke="black" points="16,-78 16,-130 282,-130 282,-78 16,-78"/>
</g>
<g id="clust7" class="cluster">
<title>cluster_AuthModule</title>
<polygon fill="none" stroke="black" stroke-dasharray="1,5" points="384,-206 384,-274 506,-274 506,-206 384,-206"/>
</g>
<g id="clust10" class="cluster">
<title>cluster_AuthModule_exports</title>
<polygon fill="none" stroke="black" points="392,-214 392,-266 498,-266 498,-214 392,-214"/>
</g>
<g id="clust13" class="cluster">
<title>cluster_PostsModule</title>
<polygon fill="none" stroke="black" stroke-dasharray="1,5" points="384,-70 384,-138 536,-138 536,-70 384,-70"/>
</g>
<g id="clust18" class="cluster">
<title>cluster_PostsModule_providers</title>
<polygon fill="none" stroke="black" points="392,-78 392,-130 528,-130 528,-78 392,-78"/>
</g>
<g id="clust19" class="cluster">
<title>cluster_UsersModule</title>
<polygon fill="none" stroke="black" stroke-dasharray="1,5" points="514,-206 514,-274 774,-274 774,-206 514,-206"/>
</g>
<g id="clust22" class="cluster">
<title>cluster_UsersModule_exports</title>
<polygon fill="none" stroke="black" points="662,-214 662,-266 766,-266 766,-214 662,-214"/>
</g>
<g id="clust24" class="cluster">
<title>cluster_UsersModule_providers</title>
<polygon fill="none" stroke="black" points="522,-214 522,-266 654,-266 654,-214 522,-214"/>
</g>
<!-- AuthModule -->
<g id="node1" class="node">
<title>AuthModule</title>
<polygon fill="#8dd3c7" stroke="black" points="143.55,-190 140.55,-194 119.55,-194 116.55,-190 56.45,-190 56.45,-154 143.55,-154 143.55,-190"/>
<text text-anchor="middle" x="100" y="-167.8" font-family="Times,serif" font-size="14.00">AuthModule</text>
</g>
<!-- AppModule -->
<g id="node4" class="node">
<title>AppModule</title>
<polygon fill="#8dd3c7" stroke="black" points="141.66,-258 138.66,-262 117.66,-262 114.66,-258 58.34,-258 58.34,-222 141.66,-222 141.66,-258"/>
<text text-anchor="middle" x="100" y="-235.8" font-family="Times,serif" font-size="14.00">AppModule</text>
</g>
<!-- AuthModule&#45;&gt;AppModule -->
<g id="edge1" class="edge">
<title>AuthModule&#45;&gt;AppModule</title>
<path fill="none" stroke="black" d="M100,-190.22C100,-190.22 100,-211.73 100,-211.73"/>
<polygon fill="black" stroke="black" points="96.5,-211.73 100,-221.73 103.5,-211.73 96.5,-211.73"/>
</g>
<!-- AuthService  -->
<g id="node7" class="node">
<title>AuthService </title>
<polygon fill="#fb8072" stroke="black" points="489.98,-258 400.02,-258 400.02,-222 489.98,-222 489.98,-258"/>
<text text-anchor="middle" x="445" y="-235.8" font-family="Times,serif" font-size="14.00">AuthService </text>
</g>
<!-- AuthModule&#45;&gt;AuthService  -->
<g id="edge6" class="edge">
<title>AuthModule&#45;&gt;AuthService </title>
<path fill="none" stroke="black" stroke-dasharray="5,2" d="M143.68,-178C146.21,-178 147.75,-178 147.75,-178 147.75,-178 147.75,-230 147.75,-230 147.75,-230 390.18,-230 390.18,-230"/>
<polygon fill="black" stroke="black" points="390.18,-233.5 400.18,-230 390.18,-226.5 390.18,-233.5"/>
</g>
<!-- PostsModule -->
<g id="node2" class="node">
<title>PostsModule</title>
<polygon fill="#8dd3c7" stroke="black" points="250.61,-190 247.61,-194 226.61,-194 223.61,-190 161.39,-190 161.39,-154 250.61,-154 250.61,-190"/>
<text text-anchor="middle" x="206" y="-167.8" font-family="Times,serif" font-size="14.00">PostsModule</text>
</g>
<!-- PostsModule&#45;&gt;AppModule -->
<g id="edge2" class="edge">
<title>PostsModule&#45;&gt;AppModule</title>
<path fill="none" stroke="black" d="M206,-190.11C206,-209.34 206,-237 206,-237 206,-237 151.89,-237 151.89,-237"/>
<polygon fill="black" stroke="black" points="151.89,-233.5 141.89,-237 151.89,-240.5 151.89,-233.5"/>
</g>
<!-- UsersModule -->
<g id="node3" class="node">
<title>UsersModule</title>
<polygon fill="#8dd3c7" stroke="black" points="359.92,-190 356.92,-194 335.92,-194 332.92,-190 268.08,-190 268.08,-154 359.92,-154 359.92,-190"/>
<text text-anchor="middle" x="314" y="-167.8" font-family="Times,serif" font-size="14.00">UsersModule</text>
</g>
<!-- UsersModule&#45;&gt;AppModule -->
<g id="edge3" class="edge">
<title>UsersModule&#45;&gt;AppModule</title>
<path fill="none" stroke="black" d="M314,-190.32C314,-213.66 314,-251 314,-251 314,-251 151.77,-251 151.77,-251"/>
<polygon fill="black" stroke="black" points="151.77,-247.5 141.77,-251 151.77,-254.5 151.77,-247.5"/>
</g>
<!-- UserService  -->
<g id="node9" class="node">
<title>UserService </title>
<polygon fill="#fb8072" stroke="black" points="757.9,-258 670.1,-258 670.1,-222 757.9,-222 757.9,-258"/>
<text text-anchor="middle" x="714" y="-235.8" font-family="Times,serif" font-size="14.00">UserService </text>
</g>
<!-- UsersModule&#45;&gt;UserService  -->
<g id="edge10" class="edge">
<title>UsersModule&#45;&gt;UserService </title>
<path fill="none" stroke="black" stroke-dasharray="5,2" d="M359.89,-166C464.95,-166 714,-166 714,-166 714,-166 714,-211.71 714,-211.71"/>
<polygon fill="black" stroke="black" points="710.5,-211.71 714,-221.71 717.5,-211.71 710.5,-211.71"/>
</g>
<!-- AppService -->
<g id="node5" class="node">
<title>AppService</title>
<ellipse fill="#fdb462" stroke="black" cx="81" cy="-104" rx="56.74" ry="18"/>
<text text-anchor="middle" x="81" y="-99.8" font-family="Times,serif" font-size="14.00">AppService</text>
</g>
<!-- AppService&#45;&gt;AppModule -->
<g id="edge4" class="edge">
<title>AppService&#45;&gt;AppModule</title>
<path fill="none" stroke="black" d="M40.3,-116.55C40.3,-150.22 40.3,-240 40.3,-240 40.3,-240 48.21,-240 48.21,-240"/>
<polygon fill="black" stroke="black" points="48.21,-243.5 58.21,-240 48.21,-236.5 48.21,-243.5"/>
</g>
<!-- AuthService -->
<g id="node6" class="node">
<title>AuthService</title>
<ellipse fill="#fdb462" stroke="black" cx="215" cy="-104" rx="59.11" ry="18"/>
<text text-anchor="middle" x="215" y="-99.8" font-family="Times,serif" font-size="14.00">AuthService</text>
</g>
<!-- AuthService&#45;&gt;AuthModule -->
<g id="edge7" class="edge">
<title>AuthService&#45;&gt;AuthModule</title>
<path fill="none" stroke="black" d="M155.49,-104C153.12,-104 151.72,-104 151.72,-104 151.72,-104 151.72,-166 151.72,-166 151.72,-166 150.91,-166 150.91,-166"/>
<polygon fill="black" stroke="black" points="153.64,-162.5 143.64,-166 153.64,-169.5 153.64,-162.5"/>
</g>
<!-- AuthService&#45;&gt;AppModule -->
<g id="edge5" class="edge">
<title>AuthService&#45;&gt;AppModule</title>
<path fill="none" stroke="black" d="M259.42,-115.94C259.42,-149.79 259.42,-244 259.42,-244 259.42,-244 151.89,-244 151.89,-244"/>
<polygon fill="black" stroke="black" points="151.89,-240.5 141.89,-244 151.89,-247.5 151.89,-240.5"/>
</g>
<!-- PostsService -->
<g id="node8" class="node">
<title>PostsService</title>
<ellipse fill="#fdb462" stroke="black" cx="460" cy="-104" rx="60.27" ry="18"/>
<text text-anchor="middle" x="460" y="-99.8" font-family="Times,serif" font-size="14.00">PostsService</text>
</g>
<!-- PostsService&#45;&gt;PostsModule -->
<g id="edge8" class="edge">
<title>PostsService&#45;&gt;PostsModule</title>
<path fill="none" stroke="black" d="M430.09,-119.86C430.09,-126.63 430.09,-133 430.09,-133 430.09,-133 191.15,-133 191.15,-133 191.15,-133 191.15,-143.87 191.15,-143.87"/>
<polygon fill="black" stroke="black" points="187.65,-143.87 191.15,-153.87 194.65,-143.87 187.65,-143.87"/>
</g>
<!-- PostsService&#45;&gt;PostsModule -->
<g id="edge9" class="edge">
<title>PostsService&#45;&gt;PostsModule</title>
<path fill="none" stroke="black" d="M459.91,-122.13C459.91,-132.71 459.91,-144 459.91,-144 459.91,-144 220.85,-144 220.85,-144 220.85,-144 220.85,-144.98 220.85,-144.98"/>
<polygon fill="black" stroke="black" points="217.35,-143.79 220.85,-153.79 224.35,-143.79 217.35,-143.79"/>
</g>
<!-- UserService -->
<g id="node10" class="node">
<title>UserService</title>
<ellipse fill="#fdb462" stroke="black" cx="588" cy="-240" rx="58.44" ry="18"/>
<text text-anchor="middle" x="588" y="-235.8" font-family="Times,serif" font-size="14.00">UserService</text>
</g>
<!-- UserService&#45;&gt;UsersModule -->
<g id="edge11" class="edge">
<title>UserService&#45;&gt;UsersModule</title>
<path fill="none" stroke="black" d="M588,-221.73C588,-203.44 588,-178 588,-178 588,-178 369.86,-178 369.86,-178"/>
<polygon fill="black" stroke="black" points="369.86,-174.5 359.86,-178 369.86,-181.5 369.86,-174.5"/>
</g>
</g>
</svg>
